<svg width="22" height="22" viewBox="0 0 22 22" fill="none" xmlns="http://www.w3.org/2000/svg">
<g clip-path="url(#clip0_91_2021)">
<path d="M20.6792 2.29321H0.765896C0.34226 2.29321 0 2.63547 0 3.05911V18.377C0 18.8007 0.34226 19.1429 0.765896 19.1429H20.6792C21.1028 19.1429 21.4451 18.8007 21.4451 18.377V3.05911C21.4451 2.63547 21.1028 2.29321 20.6792 2.29321ZM19.7218 4.94513V17.4197H1.72327V4.94513L1.06268 4.43054L2.0033 3.22186L3.02768 4.01887H18.4198L19.4442 3.22186L20.3848 4.43054L19.7218 4.94513V4.94513ZM18.4198 4.01648L10.7225 10L3.02529 4.01648L2.0009 3.21947L1.06029 4.42815L1.72087 4.94273L9.89681 11.2997C10.1319 11.4823 10.4212 11.5815 10.719 11.5815C11.0167 11.5815 11.306 11.4823 11.5411 11.2997L19.7218 4.94513L20.3824 4.43054L19.4418 3.22186L18.4198 4.01648Z" fill="#140000"/>
</g>
<defs>
<clipPath id="clip0_91_2021">
<rect width="21.4451" height="21.4451" fill="white"/>
</clipPath>
</defs>
</svg>
