<svg width="22" height="22" viewBox="0 0 22 22" fill="none" xmlns="http://www.w3.org/2000/svg">
<path d="M19.4613 4.18432L16.9123 1.63772C16.6011 1.32658 16.1847 1.15186 15.7443 1.15186C15.3039 1.15186 14.8874 1.32418 14.5763 1.63772L11.831 4.37819C11.5199 4.68934 11.3452 5.10819 11.3452 5.54858C11.3452 5.99136 11.5175 6.40542 11.831 6.71896L13.9755 8.86586C13.487 10.0041 12.7851 11.0384 11.9076 11.9127C11.0292 12.7959 10.0024 13.4924 8.86318 13.9854L6.71867 11.8385C6.40752 11.5274 5.99107 11.3526 5.55068 11.3526C5.33346 11.3518 5.11826 11.3944 4.9177 11.4778C4.71714 11.5612 4.53525 11.6839 4.38269 11.8385L1.63504 14.579C1.32389 14.8901 1.14917 15.309 1.14917 15.7494C1.14917 16.1921 1.3215 16.6062 1.63504 16.9197L4.18164 19.4663C4.71298 19.9977 5.44537 20.3016 6.1969 20.3016C6.35248 20.3016 6.50326 20.2897 6.65644 20.2634C9.82534 19.7416 12.9703 18.0542 15.5097 15.5172C18.0467 12.9754 19.7317 9.83041 20.2583 6.65913C20.4091 5.7592 20.1075 4.83294 19.4613 4.18432ZM18.5613 6.37431C18.0946 9.19616 16.5772 12.0108 14.2915 14.2965C12.0057 16.5823 9.19347 18.0997 6.37162 18.5664C6.0174 18.6262 5.6536 18.5066 5.39511 18.2505L2.89398 15.7494L5.54589 13.095L8.41321 15.9672L8.43476 15.9887L8.95174 15.7972C10.5193 15.2209 11.9427 14.3106 13.1235 13.1295C14.3042 11.9483 15.214 10.5245 15.7898 8.95681L15.9812 8.43983L13.09 5.55097L15.7419 2.89666L18.243 5.39779C18.5015 5.65628 18.6212 6.02008 18.5613 6.37431Z" fill="#140000"/>
</svg>
